<?xml version="1.0" encoding="UTF-8" standalone="no"?>
<!DOCTYPE svg PUBLIC "-//W3C//DTD SVG 1.0//EN"
 "http://www.w3.org/TR/2001/REC-SVG-20010904/DTD/svg10.dtd" [
 <!ATTLIST svg xmlns:xlink CDATA #FIXED "http://www.w3.org/1999/xlink">
]>
<!-- Generated by Graphviz version 2.20.2 (Wed Jul &#160;9 19:59:08 GMT 2008)
     For user: bovetl -->
<!-- Title: _anonymous_0 Pages: 1 -->
<svg width="431pt" height="318pt"
 viewBox="0.00 0.00 431.00 318.00" xmlns="http://www.w3.org/2000/svg" xmlns:xlink="http://www.w3.org/1999/xlink">
<g id="graph0" class="graph" transform="scale(1 1) rotate(0) translate(4 314)">
<title>_anonymous_0</title>
<polygon style="fill:white;stroke:white;" points="-4,4 -4,-314 427,-314 427,4 -4,4"/>
<text text-anchor="start" x="8.5" y="-298.667" style="font-family:Arial;font-size:10.00;fill:#333333;">legend</text>
<g id="cluster2" class="cluster"><title>cluster_host_140</title>
<polygon style="fill:none;stroke:#b4cdcd;stroke-width:2;" points="321,-200 321,-282 415,-282 415,-200 321,-200"/>
<text text-anchor="middle" x="338" y="-269" style="font-family:Arial;font-size:10.00;fill:#333333;">host</text>
</g>
<g id="cluster3" class="cluster"><title>cluster_host_141</title>
<polygon style="fill:#d1eeee;stroke:#b4cdcd;stroke-width:2;" points="321,-88 321,-170 415,-170 415,-88 321,-88"/>
<text text-anchor="middle" x="343" y="-157" style="font-family:Arial;font-size:10.00;fill:#333333;">cluster</text>
</g>
<!-- process_131 -->
<g id="node1" class="node"><title>process_131</title>
<polygon style="fill:white;stroke:white;" points="68,-254 12,-254 1.57555e-014,-242 5.56077e-015,-220 12,-208 68,-208 80,-220 80,-242 68,-254"/>
<path style="fill:white;stroke:white;" d="M12,-254C6,-254 1.85359e-014,-248 1.57555e-014,-242"/>
<path style="fill:white;stroke:white;" d="M5.56077e-015,-220C2.78038e-015,-214 6,-208 12,-208"/>
<path style="fill:white;stroke:white;" d="M68,-208C74,-208 80,-214 80,-220"/>
<path style="fill:white;stroke:white;" d="M80,-242C80,-248 74,-254 68,-254"/>
<polyline style="fill:none;stroke:#8b7d6b;" points="68,-254 12,-254 "/>
<path style="fill:none;stroke:#8b7d6b;" d="M12,-254C6,-254 1.85359e-014,-248 1.57555e-014,-242"/>
<polyline style="fill:none;stroke:#8b7d6b;" points="1.57555e-014,-242 5.56077e-015,-220 "/>
<path style="fill:none;stroke:#8b7d6b;" d="M5.56077e-015,-220C2.78038e-015,-214 6,-208 12,-208"/>
<polyline style="fill:none;stroke:#8b7d6b;" points="12,-208 68,-208 "/>
<path style="fill:none;stroke:#8b7d6b;" d="M68,-208C74,-208 80,-214 80,-220"/>
<polyline style="fill:none;stroke:#8b7d6b;" points="80,-220 80,-242 "/>
<path style="fill:none;stroke:#8b7d6b;" d="M80,-242C80,-248 74,-254 68,-254"/>
<text text-anchor="start" x="12" y="-235.733" style="font-family:Arial;font-size:14.00;fill:#333333;">manager</text>
<text text-anchor="start" x="38.5" y="-218.667" style="font-family:Arial;font-size:10.00;fill:#333333;"> </text>
</g>
<!-- process_132 -->
<g id="node2" class="node"><title>process_132</title>
<polygon style="fill:white;stroke:white;" points="218,-254 164,-254 152,-242 152,-220 164,-208 218,-208 230,-220 230,-242 218,-254"/>
<path style="fill:white;stroke:white;" d="M164,-254C158,-254 152,-248 152,-242"/>
<path style="fill:white;stroke:white;" d="M152,-220C152,-214 158,-208 164,-208"/>
<path style="fill:white;stroke:white;" d="M218,-208C224,-208 230,-214 230,-220"/>
<path style="fill:white;stroke:white;" d="M230,-242C230,-248 224,-254 218,-254"/>
<polyline style="fill:none;stroke:#8b7d6b;" points="218,-254 164,-254 "/>
<path style="fill:none;stroke:#8b7d6b;" d="M164,-254C158,-254 152,-248 152,-242"/>
<polyline style="fill:none;stroke:#8b7d6b;" points="152,-242 152,-220 "/>
<path style="fill:none;stroke:#8b7d6b;" d="M152,-220C152,-214 158,-208 164,-208"/>
<polyline style="fill:none;stroke:#8b7d6b;" points="164,-208 218,-208 "/>
<path style="fill:none;stroke:#8b7d6b;" d="M218,-208C224,-208 230,-214 230,-220"/>
<polyline style="fill:none;stroke:#8b7d6b;" points="230,-220 230,-242 "/>
<path style="fill:none;stroke:#8b7d6b;" d="M230,-242C230,-248 224,-254 218,-254"/>
<text text-anchor="start" x="164.5" y="-235.733" style="font-family:Arial;font-size:14.00;fill:#333333;">instance</text>
<text text-anchor="start" x="189.5" y="-218.667" style="font-family:Arial;font-size:10.00;fill:#333333;"> </text>
</g>
<!-- process_131&#45;&gt;process_132 -->
<g id="edge6" class="edge"><title>process_131&#45;&gt;process_132</title>
<path style="fill:none;stroke:#8b7d6b;stroke-dasharray:1,5;" d="M80,-231C99,-231 122,-231 142,-231"/>
<polygon style="fill:#8b7d6b;stroke:#8b7d6b;" points="142,-234.5 152,-231 142,-227.5 142,-234.5"/>
<text text-anchor="middle" x="116" y="-234" style="font-family:Arial;font-size:10.00;">deploys</text>
</g>
<!-- process_134x -->
<g id="node3" class="node"><title>process_134x</title>
<polygon style="fill:bisque;stroke:bisque;" points="221,-144 161,-144 149,-132 149,-106 161,-94 221,-94 233,-106 233,-132 221,-144"/>
<path style="fill:bisque;stroke:bisque;" d="M161,-144C155,-144 149,-138 149,-132"/>
<path style="fill:bisque;stroke:bisque;" d="M149,-106C149,-100 155,-94 161,-94"/>
<path style="fill:bisque;stroke:bisque;" d="M221,-94C227,-94 233,-100 233,-106"/>
<path style="fill:bisque;stroke:bisque;" d="M233,-132C233,-138 227,-144 221,-144"/>
<polyline style="fill:none;stroke:#8b7d6b;" points="221,-144 161,-144 "/>
<path style="fill:none;stroke:#8b7d6b;" d="M161,-144C155,-144 149,-138 149,-132"/>
<polyline style="fill:none;stroke:#8b7d6b;" points="149,-132 149,-106 "/>
<path style="fill:none;stroke:#8b7d6b;" d="M149,-106C149,-100 155,-94 161,-94"/>
<polyline style="fill:none;stroke:#8b7d6b;" points="161,-94 221,-94 "/>
<path style="fill:none;stroke:#8b7d6b;" d="M221,-94C227,-94 233,-100 233,-106"/>
<polyline style="fill:none;stroke:#8b7d6b;" points="233,-106 233,-132 "/>
<path style="fill:none;stroke:#8b7d6b;" d="M233,-132C233,-138 227,-144 221,-144"/>
<text text-anchor="start" x="166.5" y="-125.733" style="font-family:Arial;font-size:14.00;fill:#333333;">multiple</text>
<text text-anchor="start" x="161" y="-108.933" style="font-family:Arial;font-size:14.00;fill:#333333;">instances</text>
</g>
<!-- process_132&#45;&gt;process_134x -->
<g id="edge10" class="edge"><title>process_132&#45;&gt;process_134x</title>
<path style="fill:none;stroke:#8b7d6b;" d="M190,-208C190,-192 190,-172 190,-154"/>
<path style="fill:none;stroke:#8b7d6b;" d="M192,-208C192,-192 192,-172 192,-154"/>
<polygon style="fill:#8b7d6b;stroke:#8b7d6b;" points="194.5,-154 191,-144 187.5,-154 194.5,-154"/>
<text text-anchor="middle" x="249" y="-181" style="font-family:Arial;font-size:10.00;"> &#160;load balanced connection</text>
</g>
<!-- process_138 -->
<g id="node6" class="node"><title>process_138</title>
<polygon style="fill:white;stroke:white;" points="395,-254 341,-254 329,-242 329,-220 341,-208 395,-208 407,-220 407,-242 395,-254"/>
<path style="fill:white;stroke:white;" d="M341,-254C335,-254 329,-248 329,-242"/>
<path style="fill:white;stroke:white;" d="M329,-220C329,-214 335,-208 341,-208"/>
<path style="fill:white;stroke:white;" d="M395,-208C401,-208 407,-214 407,-220"/>
<path style="fill:white;stroke:white;" d="M407,-242C407,-248 401,-254 395,-254"/>
<polyline style="fill:none;stroke:#8b7d6b;" points="395,-254 341,-254 "/>
<path style="fill:none;stroke:#8b7d6b;" d="M341,-254C335,-254 329,-248 329,-242"/>
<polyline style="fill:none;stroke:#8b7d6b;" points="329,-242 329,-220 "/>
<path style="fill:none;stroke:#8b7d6b;" d="M329,-220C329,-214 335,-208 341,-208"/>
<polyline style="fill:none;stroke:#8b7d6b;" points="341,-208 395,-208 "/>
<path style="fill:none;stroke:#8b7d6b;" d="M395,-208C401,-208 407,-214 407,-220"/>
<polyline style="fill:none;stroke:#8b7d6b;" points="407,-220 407,-242 "/>
<path style="fill:none;stroke:#8b7d6b;" d="M407,-242C407,-248 401,-254 395,-254"/>
<text text-anchor="start" x="341.5" y="-235.733" style="font-family:Arial;font-size:14.00;fill:#333333;">instance</text>
<text text-anchor="start" x="366.5" y="-218.667" style="font-family:Arial;font-size:10.00;fill:#333333;"> </text>
</g>
<!-- process_132&#45;&gt;process_138 -->
<g id="edge8" class="edge"><title>process_132&#45;&gt;process_138</title>
<path style="fill:none;stroke:#8b7d6b;" d="M230,-231C256,-231 291,-231 319,-231"/>
<polygon style="fill:#8b7d6b;stroke:#8b7d6b;" points="319,-234.5 329,-231 319,-227.5 319,-234.5"/>
<text text-anchor="middle" x="279" y="-234" style="font-family:Arial;font-size:10.00;">connection</text>
</g>
<!-- process_132x -->
<g id="node4" class="node"><title>process_132x</title>
<polygon style="fill:white;stroke:white;" points="215,-46 167,-46 155,-34 155,-12 167,-1.18424e-014 215,-2.36848e-015 227,-12 227,-34 215,-46"/>
<path style="fill:white;stroke:white;" d="M167,-46C161,-46 155,-40 155,-34"/>
<path style="fill:white;stroke:white;" d="M155,-12C155,-6 161,-1.30266e-014 167,-1.18424e-014"/>
<path style="fill:white;stroke:white;" d="M215,-2.36848e-015C221,-1.18424e-015 227,-6 227,-12"/>
<path style="fill:white;stroke:white;" d="M227,-34C227,-40 221,-46 215,-46"/>
<polyline style="fill:none;stroke:#8b7d6b;" points="215,-46 167,-46 "/>
<path style="fill:none;stroke:#8b7d6b;" d="M167,-46C161,-46 155,-40 155,-34"/>
<polyline style="fill:none;stroke:#8b7d6b;" points="155,-34 155,-12 "/>
<path style="fill:none;stroke:#8b7d6b;" d="M155,-12C155,-6 161,-1.30266e-014 167,-1.18424e-014"/>
<polyline style="fill:none;stroke:#8b7d6b;" points="167,-1.18424e-014 215,-2.36848e-015 "/>
<path style="fill:none;stroke:#8b7d6b;" d="M215,-2.36848e-015C221,-1.18424e-015 227,-6 227,-12"/>
<polyline style="fill:none;stroke:#8b7d6b;" points="227,-12 227,-34 "/>
<path style="fill:none;stroke:#8b7d6b;" d="M227,-34C227,-40 221,-46 215,-46"/>
<text text-anchor="start" x="167.5" y="-27.7333" style="font-family:Arial;font-size:14.00;fill:#333333;">registry</text>
<text text-anchor="start" x="189.5" y="-10.6667" style="font-family:Arial;font-size:10.00;fill:#333333;"> </text>
</g>
<!-- process_134x&#45;&gt;process_132x -->
<g id="edge14" class="edge"><title>process_134x&#45;&gt;process_132x</title>
<path style="fill:none;stroke:#00688b;stroke-dasharray:5,2;" d="M191,-94C191,-82 191,-69 191,-56"/>
<polygon style="fill:#00688b;stroke:#00688b;" points="194.5,-56 191,-46 187.5,-56 194.5,-56"/>
<text text-anchor="middle" x="230" y="-67" style="font-family:Arial;font-size:10.00;"> &#160;discover/register</text>
</g>
<!-- process_138x -->
<g id="node8" class="node"><title>process_138x</title>
<polygon style="fill:white;stroke:white;" points="395,-142 341,-142 329,-130 329,-108 341,-96 395,-96 407,-108 407,-130 395,-142"/>
<path style="fill:white;stroke:white;" d="M341,-142C335,-142 329,-136 329,-130"/>
<path style="fill:white;stroke:white;" d="M329,-108C329,-102 335,-96 341,-96"/>
<path style="fill:white;stroke:white;" d="M395,-96C401,-96 407,-102 407,-108"/>
<path style="fill:white;stroke:white;" d="M407,-130C407,-136 401,-142 395,-142"/>
<polyline style="fill:none;stroke:#8b7d6b;" points="395,-142 341,-142 "/>
<path style="fill:none;stroke:#8b7d6b;" d="M341,-142C335,-142 329,-136 329,-130"/>
<polyline style="fill:none;stroke:#8b7d6b;" points="329,-130 329,-108 "/>
<path style="fill:none;stroke:#8b7d6b;" d="M329,-108C329,-102 335,-96 341,-96"/>
<polyline style="fill:none;stroke:#8b7d6b;" points="341,-96 395,-96 "/>
<path style="fill:none;stroke:#8b7d6b;" d="M395,-96C401,-96 407,-102 407,-108"/>
<polyline style="fill:none;stroke:#8b7d6b;" points="407,-108 407,-130 "/>
<path style="fill:none;stroke:#8b7d6b;" d="M407,-130C407,-136 401,-142 395,-142"/>
<text text-anchor="start" x="341.5" y="-123.733" style="font-family:Arial;font-size:14.00;fill:#333333;">instance</text>
<text text-anchor="start" x="366.5" y="-106.667" style="font-family:Arial;font-size:10.00;fill:#333333;"> </text>
</g>
<!-- process_134x&#45;&gt;process_138x -->
<g id="edge16" class="edge"><title>process_134x&#45;&gt;process_138x</title>
<path style="fill:none;stroke:#00688b;" d="M233,-119C259,-119 292,-119 319,-119"/>
<polygon style="fill:#00688b;stroke:#00688b;" points="319,-122.5 329,-119 319,-115.5 319,-122.5"/>
<text text-anchor="start" x="251.5" y="-135.667" style="font-family:Arial;font-size:10.00;">connection to</text>
<text text-anchor="start" x="258" y="-123.667" style="font-family:Arial;font-size:10.00;">discovered</text>
</g>
<!-- process_138&#45;&gt;process_138x -->
<g id="edge12" class="edge"><title>process_138&#45;&gt;process_138x</title>
<path style="fill:none;stroke:#8b7d6b;" d="M367,-208C367,-192 367,-170 367,-152"/>
<path style="fill:none;stroke:#8b7d6b;" d="M369,-208C369,-192 369,-170 369,-152"/>
<polygon style="fill:#8b7d6b;stroke:#8b7d6b;" points="371.5,-152 368,-142 364.5,-152 371.5,-152"/>
</g>
</g>
</svg>
